STARTFONT 2.1
COMMENT Exported by Fony v1.4.5
FONT ProFont17
SIZE 17 72 72
FONTBOUNDINGBOX 14 16 0 -3
STARTPROPERTIES 6
COPYRIGHT "ProFont Distribution 2.2 Ñ Generated by Fontographer 4.1.5"
RESOLUTION_X 72
RESOLUTION_Y 72
FONT_ASCENT 14
FONT_DESCENT 3
DEFAULT_CHAR 0
ENDPROPERTIES
CHARS 256
STARTCHAR 000
ENCODING 0
SWIDTH 1008 0
DWIDTH 14 0
BBX 0 0 0 0
BITMAP
ENDCHAR
STARTCHAR 001
ENCODING 1
SWIDTH 1008 0
DWIDTH 14 0
BBX 0 0 0 0
BITMAP
ENDCHAR
STARTCHAR 002
ENCODING 2
SWIDTH 1008 0
DWIDTH 14 0
BBX 0 0 0 0
BITMAP
ENDCHAR
STARTCHAR 003
ENCODING 3
SWIDTH 1008 0
DWIDTH 14 0
BBX 0 0 0 0
BITMAP
ENDCHAR
STARTCHAR 004
ENCODING 4
SWIDTH 1008 0
DWIDTH 14 0
BBX 0 0 0 0
BITMAP
ENDCHAR
STARTCHAR 005
ENCODING 5
SWIDTH 1008 0
DWIDTH 14 0
BBX 0 0 0 0
BITMAP
ENDCHAR
STARTCHAR 006
ENCODING 6
SWIDTH 1008 0
DWIDTH 14 0
BBX 0 0 0 0
BITMAP
ENDCHAR
STARTCHAR 007
ENCODING 7
SWIDTH 1008 0
DWIDTH 14 0
BBX 0 0 0 0
BITMAP
ENDCHAR
STARTCHAR 008
ENCODING 8
SWIDTH 1008 0
DWIDTH 14 0
BBX 0 0 0 0
BITMAP
ENDCHAR
STARTCHAR 009
ENCODING 9
SWIDTH 1008 0
DWIDTH 14 0
BBX 0 0 0 0
BITMAP
ENDCHAR
STARTCHAR 010
ENCODING 10
SWIDTH 1008 0
DWIDTH 14 0
BBX 0 0 0 0
BITMAP
ENDCHAR
STARTCHAR 011
ENCODING 11
SWIDTH 1008 0
DWIDTH 14 0
BBX 0 0 0 0
BITMAP
ENDCHAR
STARTCHAR 012
ENCODING 12
SWIDTH 1008 0
DWIDTH 14 0
BBX 0 0 0 0
BITMAP
ENDCHAR
STARTCHAR 013
ENCODING 13
SWIDTH 1008 0
DWIDTH 14 0
BBX 0 0 0 0
BITMAP
ENDCHAR
STARTCHAR 014
ENCODING 14
SWIDTH 1008 0
DWIDTH 14 0
BBX 0 0 0 0
BITMAP
ENDCHAR
STARTCHAR 015
ENCODING 15
SWIDTH 1008 0
DWIDTH 14 0
BBX 0 0 0 0
BITMAP
ENDCHAR
STARTCHAR 016
ENCODING 16
SWIDTH 1008 0
DWIDTH 14 0
BBX 0 0 0 0
BITMAP
ENDCHAR
STARTCHAR 017
ENCODING 17
SWIDTH 1008 0
DWIDTH 14 0
BBX 0 0 0 0
BITMAP
ENDCHAR
STARTCHAR 018
ENCODING 18
SWIDTH 1008 0
DWIDTH 14 0
BBX 0 0 0 0
BITMAP
ENDCHAR
STARTCHAR 019
ENCODING 19
SWIDTH 1008 0
DWIDTH 14 0
BBX 0 0 0 0
BITMAP
ENDCHAR
STARTCHAR 020
ENCODING 20
SWIDTH 1008 0
DWIDTH 14 0
BBX 0 0 0 0
BITMAP
ENDCHAR
STARTCHAR 021
ENCODING 21
SWIDTH 1008 0
DWIDTH 14 0
BBX 0 0 0 0
BITMAP
ENDCHAR
STARTCHAR 022
ENCODING 22
SWIDTH 1008 0
DWIDTH 14 0
BBX 0 0 0 0
BITMAP
ENDCHAR
STARTCHAR 023
ENCODING 23
SWIDTH 1008 0
DWIDTH 14 0
BBX 0 0 0 0
BITMAP
ENDCHAR
STARTCHAR 024
ENCODING 24
SWIDTH 1008 0
DWIDTH 14 0
BBX 0 0 0 0
BITMAP
ENDCHAR
STARTCHAR 025
ENCODING 25
SWIDTH 1008 0
DWIDTH 14 0
BBX 0 0 0 0
BITMAP
ENDCHAR
STARTCHAR 026
ENCODING 26
SWIDTH 1008 0
DWIDTH 14 0
BBX 0 0 0 0
BITMAP
ENDCHAR
STARTCHAR 027
ENCODING 27
SWIDTH 1008 0
DWIDTH 14 0
BBX 0 0 0 0
BITMAP
ENDCHAR
STARTCHAR 028
ENCODING 28
SWIDTH 1008 0
DWIDTH 14 0
BBX 0 0 0 0
BITMAP
ENDCHAR
STARTCHAR 029
ENCODING 29
SWIDTH 1008 0
DWIDTH 14 0
BBX 0 0 0 0
BITMAP
ENDCHAR
STARTCHAR 030
ENCODING 30
SWIDTH 1008 0
DWIDTH 14 0
BBX 0 0 0 0
BITMAP
ENDCHAR
STARTCHAR 031
ENCODING 31
SWIDTH 1008 0
DWIDTH 14 0
BBX 0 0 0 0
BITMAP
ENDCHAR
STARTCHAR 032
ENCODING 32
SWIDTH 1008 0
DWIDTH 14 0
BBX 0 0 0 0
BITMAP
ENDCHAR
STARTCHAR 033
ENCODING 33
SWIDTH 1008 0
DWIDTH 14 0
BBX 2 11 3 0
BITMAP
C0
C0
C0
C0
C0
C0
C0
C0
00
C0
C0
ENDCHAR
STARTCHAR 034
ENCODING 34
SWIDTH 1008 0
DWIDTH 14 0
BBX 5 5 1 8
BITMAP
D8
D8
D8
D8
D8
ENDCHAR
STARTCHAR 035
ENCODING 35
SWIDTH 1008 0
DWIDTH 14 0
BBX 7 7 1 3
BITMAP
6C
FE
FE
6C
FE
FE
6C
ENDCHAR
STARTCHAR 036
ENCODING 36
SWIDTH 1008 0
DWIDTH 14 0
BBX 8 15 0 -2
BITMAP
18
18
3C
7E
DB
D8
7C
3E
1F
DB
DB
7E
3C
18
18
ENDCHAR
STARTCHAR 037
ENCODING 37
SWIDTH 1008 0
DWIDTH 14 0
BBX 8 11 0 0
BITMAP
3F
7F
DB
DE
7C
3C
3E
7B
DB
CE
C4
ENDCHAR
STARTCHAR 038
ENCODING 38
SWIDTH 1008 0
DWIDTH 14 0
BBX 8 11 0 0
BITMAP
30
78
CC
CC
D8
70
F3
DE
CC
FE
7B
ENDCHAR
STARTCHAR 039
ENCODING 39
SWIDTH 1008 0
DWIDTH 14 0
BBX 2 5 3 8
BITMAP
C0
C0
C0
C0
C0
ENDCHAR
STARTCHAR 040
ENCODING 40
SWIDTH 1008 0
DWIDTH 14 0
BBX 6 15 1 -2
BITMAP
0C
18
30
60
C0
C0
C0
C0
C0
C0
C0
60
30
18
0C
ENDCHAR
STARTCHAR 041
ENCODING 41
SWIDTH 1008 0
DWIDTH 14 0
BBX 6 15 1 -2
BITMAP
C0
60
30
18
0C
0C
0C
0C
0C
0C
0C
18
30
60
C0
ENDCHAR
STARTCHAR 042
ENCODING 42
SWIDTH 1008 0
DWIDTH 14 0
BBX 8 8 0 3
BITMAP
18
DB
FF
3C
3C
FF
DB
18
ENDCHAR
STARTCHAR 043
ENCODING 43
SWIDTH 1008 0
DWIDTH 14 0
BBX 8 8 0 1
BITMAP
18
18
18
FF
FF
18
18
18
ENDCHAR
STARTCHAR 044
ENCODING 44
SWIDTH 1008 0
DWIDTH 14 0
BBX 4 6 1 -3
BITMAP
70
70
70
30
60
C0
ENDCHAR
STARTCHAR 045
ENCODING 45
SWIDTH 1008 0
DWIDTH 14 0
BBX 5 2 1 4
BITMAP
F8
F8
ENDCHAR
STARTCHAR 046
ENCODING 46
SWIDTH 1008 0
DWIDTH 14 0
BBX 3 3 2 0
BITMAP
E0
E0
E0
ENDCHAR
STARTCHAR 047
ENCODING 47
SWIDTH 1008 0
DWIDTH 14 0
BBX 9 16 0 -3
BITMAP
0180
0180
0300
0300
0600
0600
0C00
0C00
1800
1800
3000
3000
6000
6000
C000
C000
ENDCHAR
STARTCHAR 048
ENCODING 48
SWIDTH 1008 0
DWIDTH 14 0
BBX 8 11 0 0
BITMAP
3C
7E
C3
C7
CF
DB
F3
E3
C3
7E
3C
ENDCHAR
STARTCHAR 049
ENCODING 49
SWIDTH 1008 0
DWIDTH 14 0
BBX 8 11 0 0
BITMAP
18
78
78
18
18
18
18
18
18
FF
FF
ENDCHAR
STARTCHAR 050
ENCODING 50
SWIDTH 1008 0
DWIDTH 14 0
BBX 8 11 0 0
BITMAP
3C
7E
C3
C3
06
0C
18
30
60
FF
FF
ENDCHAR
STARTCHAR 051
ENCODING 51
SWIDTH 1008 0
DWIDTH 14 0
BBX 8 11 0 0
BITMAP
3C
7E
C3
C3
1E
1C
06
C3
C3
7E
3C
ENDCHAR
STARTCHAR 052
ENCODING 52
SWIDTH 1008 0
DWIDTH 14 0
BBX 8 11 0 0
BITMAP
06
0E
1E
36
66
C6
FF
FF
06
0F
0F
ENDCHAR
STARTCHAR 053
ENCODING 53
SWIDTH 1008 0
DWIDTH 14 0
BBX 8 11 0 0
BITMAP
FF
FF
C0
FC
FE
03
03
03
C3
7E
3C
ENDCHAR
STARTCHAR 054
ENCODING 54
SWIDTH 1008 0
DWIDTH 14 0
BBX 8 11 0 0
BITMAP
3E
7E
C0
FC
FE
C3
C3
C3
C3
7E
3C
ENDCHAR
STARTCHAR 055
ENCODING 55
SWIDTH 1008 0
DWIDTH 14 0
BBX 8 11 0 0
BITMAP
FF
FF
03
03
06
0C
18
18
18
18
18
ENDCHAR
STARTCHAR 056
ENCODING 56
SWIDTH 1008 0
DWIDTH 14 0
BBX 8 11 0 0
BITMAP
3C
7E
C3
C3
7E
3C
7E
C3
C3
7E
3C
ENDCHAR
STARTCHAR 057
ENCODING 57
SWIDTH 1008 0
DWIDTH 14 0
BBX 8 11 0 0
BITMAP
3C
7E
C3
C3
C3
C3
7F
3F
03
7E
7C
ENDCHAR
STARTCHAR 058
ENCODING 58
SWIDTH 1008 0
DWIDTH 14 0
BBX 3 8 2 0
BITMAP
E0
E0
E0
00
00
E0
E0
E0
ENDCHAR
STARTCHAR 059
ENCODING 59
SWIDTH 1008 0
DWIDTH 14 0
BBX 4 11 1 -3
BITMAP
70
70
70
00
00
70
70
70
30
60
C0
ENDCHAR
STARTCHAR 060
ENCODING 60
SWIDTH 1008 0
DWIDTH 14 0
BBX 7 11 1 0
BITMAP
06
0C
18
30
60
C0
60
30
18
0C
06
ENDCHAR
STARTCHAR 061
ENCODING 61
SWIDTH 1008 0
DWIDTH 14 0
BBX 8 5 0 3
BITMAP
FF
FF
00
FF
FF
ENDCHAR
STARTCHAR 062
ENCODING 62
SWIDTH 1008 0
DWIDTH 14 0
BBX 7 11 1 0
BITMAP
C0
60
30
18
0C
06
0C
18
30
60
C0
ENDCHAR
STARTCHAR 063
ENCODING 63
SWIDTH 1008 0
DWIDTH 14 0
BBX 8 11 0 0
BITMAP
3C
7E
C3
C3
06
0C
18
10
00
18
18
ENDCHAR
STARTCHAR 064
ENCODING 64
SWIDTH 1008 0
DWIDTH 14 0
BBX 8 11 0 0
BITMAP
3C
7E
C3
CF
DF
DB
DF
CE
C0
7F
3F
ENDCHAR
STARTCHAR 065
ENCODING 65
SWIDTH 1008 0
DWIDTH 14 0
BBX 8 11 0 0
BITMAP
18
3C
3C
66
66
C3
FF
FF
C3
C3
C3
ENDCHAR
STARTCHAR 066
ENCODING 66
SWIDTH 1008 0
DWIDTH 14 0
BBX 8 11 0 0
BITMAP
FC
FE
C3
C3
FE
FC
C6
C3
C3
FE
FC
ENDCHAR
STARTCHAR 067
ENCODING 67
SWIDTH 1008 0
DWIDTH 14 0
BBX 8 11 0 0
BITMAP
3C
7E
C3
C3
C0
C0
C0
C3
C3
7E
3C
ENDCHAR
STARTCHAR 068
ENCODING 68
SWIDTH 1008 0
DWIDTH 14 0
BBX 8 11 0 0
BITMAP
FC
FE
C3
C3
C3
C3
C3
C3
C3
FE
FC
ENDCHAR
STARTCHAR 069
ENCODING 69
SWIDTH 1008 0
DWIDTH 14 0
BBX 8 11 0 0
BITMAP
FF
FF
C0
C0
FC
FC
C0
C0
C0
FF
FF
ENDCHAR
STARTCHAR 070
ENCODING 70
SWIDTH 1008 0
DWIDTH 14 0
BBX 8 11 0 0
BITMAP
FF
FF
C0
C0
FC
FC
C0
C0
C0
C0
C0
ENDCHAR
STARTCHAR 071
ENCODING 71
SWIDTH 1008 0
DWIDTH 14 0
BBX 8 11 0 0
BITMAP
3C
7E
C3
C3
C0
CF
CF
C3
C3
7E
3C
ENDCHAR
STARTCHAR 072
ENCODING 72
SWIDTH 1008 0
DWIDTH 14 0
BBX 8 11 0 0
BITMAP
C3
C3
C3
C3
FF
FF
C3
C3
C3
C3
C3
ENDCHAR
STARTCHAR 073
ENCODING 73
SWIDTH 1008 0
DWIDTH 14 0
BBX 8 11 0 0
BITMAP
FF
FF
18
18
18
18
18
18
18
FF
FF
ENDCHAR
STARTCHAR 074
ENCODING 74
SWIDTH 1008 0
DWIDTH 14 0
BBX 8 11 0 0
BITMAP
03
03
03
03
03
03
C3
C3
C3
7E
3C
ENDCHAR
STARTCHAR 075
ENCODING 75
SWIDTH 1008 0
DWIDTH 14 0
BBX 8 11 0 0
BITMAP
C3
C6
CC
D8
F0
E0
F0
D8
CC
C6
C3
ENDCHAR
STARTCHAR 076
ENCODING 76
SWIDTH 1008 0
DWIDTH 14 0
BBX 8 11 0 0
BITMAP
C0
C0
C0
C0
C0
C0
C0
C0
C0
FF
FF
ENDCHAR
STARTCHAR 077
ENCODING 77
SWIDTH 1008 0
DWIDTH 14 0
BBX 8 11 0 0
BITMAP
C3
E7
FF
FF
DB
DB
DB
C3
C3
C3
C3
ENDCHAR
STARTCHAR 078
ENCODING 78
SWIDTH 1008 0
DWIDTH 14 0
BBX 8 11 0 0
BITMAP
C3
E3
F3
DB
CF
C7
C3
C3
C3
C3
C3
ENDCHAR
STARTCHAR 079
ENCODING 79
SWIDTH 1008 0
DWIDTH 14 0
BBX 8 11 0 0
BITMAP
3C
7E
C3
C3
C3
C3
C3
C3
C3
7E
3C
ENDCHAR
STARTCHAR 080
ENCODING 80
SWIDTH 1008 0
DWIDTH 14 0
BBX 8 11 0 0
BITMAP
FC
FE
C3
C3
FE
FC
C0
C0
C0
C0
C0
ENDCHAR
STARTCHAR 081
ENCODING 81
SWIDTH 1008 0
DWIDTH 14 0
BBX 8 13 0 -2
BITMAP
3C
7E
C3
C3
C3
C3
C3
DB
CF
7E
3E
06
03
ENDCHAR
STARTCHAR 082
ENCODING 82
SWIDTH 1008 0
DWIDTH 14 0
BBX 8 11 0 0
BITMAP
FC
FE
C3
C3
FE
FC
C6
C3
C3
C3
C3
ENDCHAR
STARTCHAR 083
ENCODING 83
SWIDTH 1008 0
DWIDTH 14 0
BBX 8 11 0 0
BITMAP
3C
7E
C3
C0
7C
3E
07
C3
C3
7E
3C
ENDCHAR
STARTCHAR 084
ENCODING 84
SWIDTH 1008 0
DWIDTH 14 0
BBX 8 11 0 0
BITMAP
FF
FF
18
18
18
18
18
18
18
18
18
ENDCHAR
STARTCHAR 085
ENCODING 85
SWIDTH 1008 0
DWIDTH 14 0
BBX 8 11 0 0
BITMAP
C3
C3
C3
C3
C3
C3
C3
C3
C3
7E
3C
ENDCHAR
STARTCHAR 086
ENCODING 86
SWIDTH 1008 0
DWIDTH 14 0
BBX 8 11 0 0
BITMAP
C3
C3
C3
C3
C3
66
66
3C
3C
18
18
ENDCHAR
STARTCHAR 087
ENCODING 87
SWIDTH 1008 0
DWIDTH 14 0
BBX 8 11 0 0
BITMAP
C3
C3
C3
C3
DB
DB
DB
FF
FF
E7
C3
ENDCHAR
STARTCHAR 088
ENCODING 88
SWIDTH 1008 0
DWIDTH 14 0
BBX 8 11 0 0
BITMAP
C3
C3
C3
66
3C
18
3C
66
C3
C3
C3
ENDCHAR
STARTCHAR 089
ENCODING 89
SWIDTH 1008 0
DWIDTH 14 0
BBX 8 11 0 0
BITMAP
C3
C3
C3
C3
E7
7E
3C
18
18
18
18
ENDCHAR
STARTCHAR 090
ENCODING 90
SWIDTH 1008 0
DWIDTH 14 0
BBX 8 11 0 0
BITMAP
FF
FF
03
06
0C
18
30
60
C0
FF
FF
ENDCHAR
STARTCHAR 091
ENCODING 91
SWIDTH 1008 0
DWIDTH 14 0
BBX 4 15 3 -2
BITMAP
F0
F0
C0
C0
C0
C0
C0
C0
C0
C0
C0
C0
C0
F0
F0
ENDCHAR
STARTCHAR 092
ENCODING 92
SWIDTH 1008 0
DWIDTH 14 0
BBX 9 16 0 -3
BITMAP
C000
C000
6000
6000
3000
3000
1800
1800
0C00
0C00
0600
0600
0300
0300
0180
0180
ENDCHAR
STARTCHAR 093
ENCODING 93
SWIDTH 1008 0
DWIDTH 14 0
BBX 4 15 1 -2
BITMAP
F0
F0
30
30
30
30
30
30
30
30
30
30
30
F0
F0
ENDCHAR
STARTCHAR 094
ENCODING 94
SWIDTH 1008 0
DWIDTH 14 0
BBX 7 5 1 6
BITMAP
10
38
6C
C6
82
ENDCHAR
STARTCHAR 095
ENCODING 95
SWIDTH 1008 0
DWIDTH 14 0
BBX 9 2 0 -3
BITMAP
FF80
FF80
ENDCHAR
STARTCHAR 096
ENCODING 96
SWIDTH 1008 0
DWIDTH 14 0
BBX 3 4 1 9
BITMAP
80
C0
60
20
ENDCHAR
STARTCHAR 097
ENCODING 97
SWIDTH 1008 0
DWIDTH 14 0
BBX 8 8 0 0
BITMAP
3F
7F
C3
C3
C7
CF
7B
33
ENDCHAR
STARTCHAR 098
ENCODING 98
SWIDTH 1008 0
DWIDTH 14 0
BBX 8 11 0 0
BITMAP
C0
C0
C0
FC
FE
C3
C3
C3
C3
FE
FC
ENDCHAR
STARTCHAR 099
ENCODING 99
SWIDTH 1008 0
DWIDTH 14 0
BBX 8 8 0 0
BITMAP
3C
7E
C3
C3
C0
C0
7F
3F
ENDCHAR
STARTCHAR 100
ENCODING 100
SWIDTH 1008 0
DWIDTH 14 0
BBX 8 11 0 0
BITMAP
03
03
03
3F
7F
C3
C3
C3
C3
7F
3F
ENDCHAR
STARTCHAR 101
ENCODING 101
SWIDTH 1008 0
DWIDTH 14 0
BBX 8 8 0 0
BITMAP
3C
7E
C3
FF
FF
C0
7F
3F
ENDCHAR
STARTCHAR 102
ENCODING 102
SWIDTH 1008 0
DWIDTH 14 0
BBX 6 11 2 0
BITMAP
1C
3C
60
F0
F0
60
60
60
60
60
60
ENDCHAR
STARTCHAR 103
ENCODING 103
SWIDTH 1008 0
DWIDTH 14 0
BBX 8 11 0 -3
BITMAP
3F
7F
C3
C3
C3
C3
7F
3F
03
3E
3C
ENDCHAR
STARTCHAR 104
ENCODING 104
SWIDTH 1008 0
DWIDTH 14 0
BBX 8 11 0 0
BITMAP
C0
C0
C0
FC
FE
C3
C3
C3
C3
C3
C3
ENDCHAR
STARTCHAR 105
ENCODING 105
SWIDTH 1008 0
DWIDTH 14 0
BBX 6 11 1 0
BITMAP
30
30
00
F0
F0
30
30
30
30
FC
FC
ENDCHAR
STARTCHAR 106
ENCODING 106
SWIDTH 1008 0
DWIDTH 14 0
BBX 5 14 0 -3
BITMAP
18
18
00
78
78
18
18
18
18
18
18
18
F0
E0
ENDCHAR
STARTCHAR 107
ENCODING 107
SWIDTH 1008 0
DWIDTH 14 0
BBX 8 11 0 0
BITMAP
C0
C0
C0
C6
CC
D8
F0
F8
CC
C6
C3
ENDCHAR
STARTCHAR 108
ENCODING 108
SWIDTH 1008 0
DWIDTH 14 0
BBX 6 11 1 0
BITMAP
F0
F0
30
30
30
30
30
30
30
FC
FC
ENDCHAR
STARTCHAR 109
ENCODING 109
SWIDTH 1008 0
DWIDTH 14 0
BBX 8 8 0 0
BITMAP
FC
FE
DB
DB
DB
DB
DB
DB
ENDCHAR
STARTCHAR 110
ENCODING 110
SWIDTH 1008 0
DWIDTH 14 0
BBX 8 8 0 0
BITMAP
CC
DE
F3
E3
C3
C3
C3
C3
ENDCHAR
STARTCHAR 111
ENCODING 111
SWIDTH 1008 0
DWIDTH 14 0
BBX 8 8 0 0
BITMAP
3C
7E
C3
C3
C3
C3
7E
3C
ENDCHAR
STARTCHAR 112
ENCODING 112
SWIDTH 1008 0
DWIDTH 14 0
BBX 8 11 0 -3
BITMAP
FC
FE
C3
C3
C3
C3
FE
FC
C0
C0
C0
ENDCHAR
STARTCHAR 113
ENCODING 113
SWIDTH 1008 0
DWIDTH 14 0
BBX 8 11 0 -3
BITMAP
3F
7F
C3
C3
C3
C3
7F
3F
03
03
03
ENDCHAR
STARTCHAR 114
ENCODING 114
SWIDTH 1008 0
DWIDTH 14 0
BBX 8 8 0 0
BITMAP
CC
DE
F3
E3
C0
C0
C0
C0
ENDCHAR
STARTCHAR 115
ENCODING 115
SWIDTH 1008 0
DWIDTH 14 0
BBX 8 8 0 0
BITMAP
3F
FF
C0
FC
3F
03
FF
FC
ENDCHAR
STARTCHAR 116
ENCODING 116
SWIDTH 1008 0
DWIDTH 14 0
BBX 6 11 2 0
BITMAP
60
60
60
F0
F0
60
60
60
60
3C
1C
ENDCHAR
STARTCHAR 117
ENCODING 117
SWIDTH 1008 0
DWIDTH 14 0
BBX 8 8 0 0
BITMAP
C3
C3
C3
C3
C7
CF
7B
33
ENDCHAR
STARTCHAR 118
ENCODING 118
SWIDTH 1008 0
DWIDTH 14 0
BBX 8 8 0 0
BITMAP
C3
C3
C3
66
66
3C
3C
18
ENDCHAR
STARTCHAR 119
ENCODING 119
SWIDTH 1008 0
DWIDTH 14 0
BBX 8 8 0 0
BITMAP
DB
DB
DB
DB
DB
DB
FF
66
ENDCHAR
STARTCHAR 120
ENCODING 120
SWIDTH 1008 0
DWIDTH 14 0
BBX 8 8 0 0
BITMAP
C3
66
3C
18
18
3C
66
C3
ENDCHAR
STARTCHAR 121
ENCODING 121
SWIDTH 1008 0
DWIDTH 14 0
BBX 8 11 0 -3
BITMAP
C3
C3
C3
C3
C3
C3
7F
3F
03
3E
3C
ENDCHAR
STARTCHAR 122
ENCODING 122
SWIDTH 1008 0
DWIDTH 14 0
BBX 7 8 0 0
BITMAP
FE
FE
0C
18
30
60
FE
FE
ENDCHAR
STARTCHAR 123
ENCODING 123
SWIDTH 1008 0
DWIDTH 14 0
BBX 5 17 1 -3
BITMAP
18
38
30
30
30
30
30
60
C0
60
30
30
30
30
30
38
18
ENDCHAR
STARTCHAR 124
ENCODING 124
SWIDTH 1008 0
DWIDTH 14 0
BBX 2 15 3 -2
BITMAP
C0
C0
C0
C0
C0
C0
C0
C0
C0
C0
C0
C0
C0
C0
C0
ENDCHAR
STARTCHAR 125
ENCODING 125
SWIDTH 1008 0
DWIDTH 14 0
BBX 5 17 2 -3
BITMAP
C0
E0
60
60
60
60
60
30
18
30
60
60
60
60
60
E0
C0
ENDCHAR
STARTCHAR 126
ENCODING 126
SWIDTH 1008 0
DWIDTH 14 0
BBX 8 3 0 5
BITMAP
71
DB
8E
ENDCHAR
STARTCHAR 127
ENCODING 127
SWIDTH 1008 0
DWIDTH 14 0
BBX 0 0 0 0
BITMAP
ENDCHAR
STARTCHAR 128
ENCODING 128
SWIDTH 1008 0
DWIDTH 14 0
BBX 0 0 0 0
BITMAP
ENDCHAR
STARTCHAR 129
ENCODING 129
SWIDTH 1008 0
DWIDTH 14 0
BBX 0 0 0 0
BITMAP
ENDCHAR
STARTCHAR 130
ENCODING 130
SWIDTH 1008 0
DWIDTH 14 0
BBX 4 5 0 -2
BITMAP
30
30
30
60
C0
ENDCHAR
STARTCHAR 131
ENCODING 131
SWIDTH 1008 0
DWIDTH 14 0
BBX 8 17 0 -3
BITMAP
07
0F
18
18
18
18
3C
3C
18
18
18
18
18
18
18
F0
E0
ENDCHAR
STARTCHAR 132
ENCODING 132
SWIDTH 1008 0
DWIDTH 14 0
BBX 7 5 0 -2
BITMAP
36
36
36
6C
D8
ENDCHAR
STARTCHAR 133
ENCODING 133
SWIDTH 1008 0
DWIDTH 14 0
BBX 8 2 0 0
BITMAP
DB
DB
ENDCHAR
STARTCHAR 134
ENCODING 134
SWIDTH 1008 0
DWIDTH 14 0
BBX 4 9 2 2
BITMAP
60
60
F0
F0
60
60
60
60
60
ENDCHAR
STARTCHAR 135
ENCODING 135
SWIDTH 1008 0
DWIDTH 14 0
BBX 4 9 2 2
BITMAP
60
60
F0
F0
60
F0
F0
60
60
ENDCHAR
STARTCHAR 136
ENCODING 136
SWIDTH 1008 0
DWIDTH 14 0
BBX 6 3 1 10
BITMAP
30
78
CC
ENDCHAR
STARTCHAR 137
ENCODING 137
SWIDTH 1008 0
DWIDTH 14 0
BBX 9 13 0 0
BITMAP
3F80
7F80
D980
DB00
DE00
7C00
3800
3F00
7F80
D680
9680
1F80
0F00
ENDCHAR
STARTCHAR 138
ENCODING 138
SWIDTH 1008 0
DWIDTH 14 0
BBX 8 14 0 0
BITMAP
66
3C
18
3C
7E
C3
C0
7C
3E
07
C3
C3
7E
3C
ENDCHAR
STARTCHAR 139
ENCODING 139
SWIDTH 1008 0
DWIDTH 14 0
BBX 4 7 0 0
BITMAP
30
60
C0
C0
C0
60
30
ENDCHAR
STARTCHAR 140
ENCODING 140
SWIDTH 1008 0
DWIDTH 14 0
BBX 8 11 0 0
BITMAP
3F
7F
D8
D8
DC
DC
D8
D8
D8
7F
3F
ENDCHAR
STARTCHAR 141
ENCODING 141
SWIDTH 1008 0
DWIDTH 14 0
BBX 0 0 0 0
BITMAP
ENDCHAR
STARTCHAR 142
ENCODING 142
SWIDTH 1008 0
DWIDTH 14 0
BBX 0 0 0 0
BITMAP
ENDCHAR
STARTCHAR 143
ENCODING 143
SWIDTH 1008 0
DWIDTH 14 0
BBX 0 0 0 0
BITMAP
ENDCHAR
STARTCHAR 144
ENCODING 144
SWIDTH 1008 0
DWIDTH 14 0
BBX 0 0 0 0
BITMAP
ENDCHAR
STARTCHAR 145
ENCODING 145
SWIDTH 1008 0
DWIDTH 14 0
BBX 4 5 3 6
BITMAP
30
60
C0
C0
C0
ENDCHAR
STARTCHAR 146
ENCODING 146
SWIDTH 1008 0
DWIDTH 14 0
BBX 4 5 3 6
BITMAP
30
30
30
60
C0
ENDCHAR
STARTCHAR 147
ENCODING 147
SWIDTH 1008 0
DWIDTH 14 0
BBX 7 5 1 6
BITMAP
36
6C
D8
D8
D8
ENDCHAR
STARTCHAR 148
ENCODING 148
SWIDTH 1008 0
DWIDTH 14 0
BBX 7 5 1 6
BITMAP
36
36
36
6C
D8
ENDCHAR
STARTCHAR 149
ENCODING 149
SWIDTH 1008 0
DWIDTH 14 0
BBX 7 7 0 2
BITMAP
38
7C
FE
FE
FE
7C
38
ENDCHAR
STARTCHAR 150
ENCODING 150
SWIDTH 1008 0
DWIDTH 14 0
BBX 5 2 2 5
BITMAP
F8
F8
ENDCHAR
STARTCHAR 151
ENCODING 151
SWIDTH 1008 0
DWIDTH 14 0
BBX 9 2 0 5
BITMAP
FF80
FF80
ENDCHAR
STARTCHAR 152
ENCODING 152
SWIDTH 1008 0
DWIDTH 14 0
BBX 8 3 0 9
BITMAP
71
DB
8E
ENDCHAR
STARTCHAR 153
ENCODING 153
SWIDTH 1008 0
DWIDTH 14 0
BBX 9 5 0 6
BITMAP
FC80
2780
2780
2480
2480
ENDCHAR
STARTCHAR 154
ENCODING 154
SWIDTH 1008 0
DWIDTH 14 0
BBX 8 13 0 0
BITMAP
66
3C
18
00
00
3F
FF
C0
FC
3F
03
FF
FC
ENDCHAR
STARTCHAR 155
ENCODING 155
SWIDTH 1008 0
DWIDTH 14 0
BBX 4 7 0 0
BITMAP
C0
60
30
30
30
60
C0
ENDCHAR
STARTCHAR 156
ENCODING 156
SWIDTH 1008 0
DWIDTH 14 0
BBX 8 8 0 0
BITMAP
24
7E
DB
DF
DF
D8
7F
27
ENDCHAR
STARTCHAR 157
ENCODING 157
SWIDTH 1008 0
DWIDTH 14 0
BBX 0 0 0 0
BITMAP
ENDCHAR
STARTCHAR 158
ENCODING 158
SWIDTH 1008 0
DWIDTH 14 0
BBX 0 0 0 0
BITMAP
ENDCHAR
STARTCHAR 159
ENCODING 159
SWIDTH 1008 0
DWIDTH 14 0
BBX 8 14 0 0
BITMAP
66
66
00
C3
C3
C3
C3
E7
7E
3C
18
18
18
18
ENDCHAR
STARTCHAR 160
ENCODING 160
SWIDTH 1008 0
DWIDTH 14 0
BBX 0 0 0 0
BITMAP
ENDCHAR
STARTCHAR 161
ENCODING 161
SWIDTH 1008 0
DWIDTH 14 0
BBX 2 11 5 0
BITMAP
C0
C0
00
C0
C0
C0
C0
C0
C0
C0
C0
ENDCHAR
STARTCHAR 162
ENCODING 162
SWIDTH 1008 0
DWIDTH 14 0
BBX 8 12 0 -2
BITMAP
18
18
3C
7E
DB
DB
D8
D8
7F
3F
18
18
ENDCHAR
STARTCHAR 163
ENCODING 163
SWIDTH 1008 0
DWIDTH 14 0
BBX 8 12 0 0
BITMAP
78
FC
CC
C0
F0
F0
C0
C0
C0
C7
FE
FC
ENDCHAR
STARTCHAR 164
ENCODING 164
SWIDTH 1008 0
DWIDTH 14 0
BBX 8 8 0 0
BITMAP
81
42
3C
24
24
3C
42
81
ENDCHAR
STARTCHAR 165
ENCODING 165
SWIDTH 1008 0
DWIDTH 14 0
BBX 8 11 0 0
BITMAP
C3
66
3C
FF
FF
18
FF
FF
18
18
18
ENDCHAR
STARTCHAR 166
ENCODING 166
SWIDTH 1008 0
DWIDTH 14 0
BBX 2 15 3 -2
BITMAP
C0
C0
C0
C0
C0
C0
00
00
00
C0
C0
C0
C0
C0
C0
ENDCHAR
STARTCHAR 167
ENCODING 167
SWIDTH 1008 0
DWIDTH 14 0
BBX 8 16 0 -2
BITMAP
3C
7E
63
63
33
D8
CC
C6
63
33
1B
CC
C6
C6
7E
3C
ENDCHAR
STARTCHAR 168
ENCODING 168
SWIDTH 1008 0
DWIDTH 14 0
BBX 4 2 2 9
BITMAP
90
F0
ENDCHAR
STARTCHAR 169
ENCODING 169
SWIDTH 1008 0
DWIDTH 14 0
BBX 8 11 0 0
BITMAP
78
FC
86
7B
FB
C3
FB
7B
86
FC
78
ENDCHAR
STARTCHAR 170
ENCODING 170
SWIDTH 1008 0
DWIDTH 14 0
BBX 6 9 2 5
BITMAP
3C
7C
CC
CC
7C
3C
00
FC
FC
ENDCHAR
STARTCHAR 171
ENCODING 171
SWIDTH 1008 0
DWIDTH 14 0
BBX 8 7 0 0
BITMAP
33
66
CC
CC
CC
66
33
ENDCHAR
STARTCHAR 172
ENCODING 172
SWIDTH 1008 0
DWIDTH 14 0
BBX 8 4 0 2
BITMAP
FF
FF
03
03
ENDCHAR
STARTCHAR 173
ENCODING 173
SWIDTH 1008 0
DWIDTH 14 0
BBX 8 2 0 4
BITMAP
FF
FF
ENDCHAR
STARTCHAR 174
ENCODING 174
SWIDTH 1008 0
DWIDTH 14 0
BBX 8 10 0 1
BITMAP
F8
FC
06
F3
FB
DB
F3
FB
DE
CC
ENDCHAR
STARTCHAR 175
ENCODING 175
SWIDTH 1008 0
DWIDTH 14 0
BBX 5 2 2 9
BITMAP
F8
F8
ENDCHAR
STARTCHAR 176
ENCODING 176
SWIDTH 1008 0
DWIDTH 14 0
BBX 6 6 2 6
BITMAP
30
78
CC
CC
78
30
ENDCHAR
STARTCHAR 177
ENCODING 177
SWIDTH 1008 0
DWIDTH 14 0
BBX 8 9 0 0
BITMAP
18
18
18
FF
FF
18
18
FF
FF
ENDCHAR
STARTCHAR 178
ENCODING 178
SWIDTH 1008 0
DWIDTH 14 0
BBX 4 6 2 8
BITMAP
60
90
10
20
40
F0
ENDCHAR
STARTCHAR 179
ENCODING 179
SWIDTH 1008 0
DWIDTH 14 0
BBX 4 6 2 8
BITMAP
60
90
20
10
90
60
ENDCHAR
STARTCHAR 180
ENCODING 180
SWIDTH 1008 0
DWIDTH 14 0
BBX 4 4 3 9
BITMAP
30
70
E0
C0
ENDCHAR
STARTCHAR 181
ENCODING 181
SWIDTH 1008 0
DWIDTH 14 0
BBX 8 11 0 -3
BITMAP
CC
CC
CC
CC
CC
CC
FF
F3
C0
C0
C0
ENDCHAR
STARTCHAR 182
ENCODING 182
SWIDTH 1008 0
DWIDTH 14 0
BBX 8 13 0 0
BITMAP
3F
7F
DB
DB
DB
DB
7F
3F
1B
1B
1B
1B
1B
ENDCHAR
STARTCHAR 183
ENCODING 183
SWIDTH 1008 0
DWIDTH 14 0
BBX 3 3 3 4
BITMAP
E0
E0
E0
ENDCHAR
STARTCHAR 184
ENCODING 184
SWIDTH 1008 0
DWIDTH 14 0
BBX 4 5 1 -3
BITMAP
70
70
30
60
C0
ENDCHAR
STARTCHAR 185
ENCODING 185
SWIDTH 1008 0
DWIDTH 14 0
BBX 3 6 3 8
BITMAP
C0
40
40
40
40
E0
ENDCHAR
STARTCHAR 186
ENCODING 186
SWIDTH 1008 0
DWIDTH 14 0
BBX 6 9 2 5
BITMAP
30
78
CC
CC
78
30
00
FC
FC
ENDCHAR
STARTCHAR 187
ENCODING 187
SWIDTH 1008 0
DWIDTH 14 0
BBX 8 7 0 0
BITMAP
CC
66
33
33
33
66
CC
ENDCHAR
STARTCHAR 188
ENCODING 188
SWIDTH 1008 0
DWIDTH 14 0
BBX 9 14 0 0
BITMAP
6000
2000
2000
2080
2100
7200
0400
0800
1100
2300
4500
8900
0F80
0100
ENDCHAR
STARTCHAR 189
ENCODING 189
SWIDTH 1008 0
DWIDTH 14 0
BBX 9 14 0 0
BITMAP
6000
2000
2000
2080
2100
7200
0400
0800
1300
2480
4080
8100
0200
0780
ENDCHAR
STARTCHAR 190
ENCODING 190
SWIDTH 1008 0
DWIDTH 14 0
BBX 9 14 0 0
BITMAP
3000
4800
1000
0880
4900
3200
0400
0800
1100
2300
4500
8900
0F80
0100
ENDCHAR
STARTCHAR 191
ENCODING 191
SWIDTH 1008 0
DWIDTH 14 0
BBX 8 11 0 0
BITMAP
18
18
00
08
18
30
60
C3
C3
7E
3C
ENDCHAR
STARTCHAR 192
ENCODING 192
SWIDTH 1008 0
DWIDTH 14 0
BBX 8 14 0 0
BITMAP
60
30
18
18
3C
3C
66
66
C3
FF
FF
C3
C3
C3
ENDCHAR
STARTCHAR 193
ENCODING 193
SWIDTH 1008 0
DWIDTH 14 0
BBX 8 14 0 0
BITMAP
06
0C
18
18
3C
3C
66
66
C3
FF
FF
C3
C3
C3
ENDCHAR
STARTCHAR 194
ENCODING 194
SWIDTH 1008 0
DWIDTH 14 0
BBX 8 14 0 0
BITMAP
18
3C
66
18
3C
3C
66
66
C3
FF
FF
C3
C3
C3
ENDCHAR
STARTCHAR 195
ENCODING 195
SWIDTH 1008 0
DWIDTH 14 0
BBX 8 14 0 0
BITMAP
73
DB
8E
18
3C
3C
66
66
C3
FF
FF
C3
C3
C3
ENDCHAR
STARTCHAR 196
ENCODING 196
SWIDTH 1008 0
DWIDTH 14 0
BBX 8 14 0 0
BITMAP
66
66
00
18
3C
3C
66
66
C3
FF
FF
C3
C3
C3
ENDCHAR
STARTCHAR 197
ENCODING 197
SWIDTH 1008 0
DWIDTH 14 0
BBX 8 14 0 0
BITMAP
18
3C
24
3C
18
3C
66
66
C3
FF
FF
C3
C3
C3
ENDCHAR
STARTCHAR 198
ENCODING 198
SWIDTH 1008 0
DWIDTH 14 0
BBX 8 11 0 0
BITMAP
3F
7F
D8
D8
FC
FC
D8
D8
D8
DF
DF
ENDCHAR
STARTCHAR 199
ENCODING 199
SWIDTH 1008 0
DWIDTH 14 0
BBX 8 14 0 -3
BITMAP
3C
7E
C3
C3
C0
C0
C0
C3
C3
7E
3C
18
30
60
ENDCHAR
STARTCHAR 200
ENCODING 200
SWIDTH 1008 0
DWIDTH 14 0
BBX 8 14 0 0
BITMAP
60
30
18
FF
FF
C0
C0
FC
FC
C0
C0
C0
FF
FF
ENDCHAR
STARTCHAR 201
ENCODING 201
SWIDTH 1008 0
DWIDTH 14 0
BBX 8 14 0 0
BITMAP
06
0C
18
FF
FF
C0
C0
FC
FC
C0
C0
C0
FF
FF
ENDCHAR
STARTCHAR 202
ENCODING 202
SWIDTH 1008 0
DWIDTH 14 0
BBX 8 14 0 0
BITMAP
18
3C
66
FF
FF
C0
C0
FC
FC
C0
C0
C0
FF
FF
ENDCHAR
STARTCHAR 203
ENCODING 203
SWIDTH 1008 0
DWIDTH 14 0
BBX 8 14 0 0
BITMAP
66
66
00
FF
FF
C0
C0
FC
FC
C0
C0
C0
FF
FF
ENDCHAR
STARTCHAR 204
ENCODING 204
SWIDTH 1008 0
DWIDTH 14 0
BBX 8 14 0 0
BITMAP
60
30
18
FF
FF
18
18
18
18
18
18
18
FF
FF
ENDCHAR
STARTCHAR 205
ENCODING 205
SWIDTH 1008 0
DWIDTH 14 0
BBX 8 14 0 0
BITMAP
06
0C
18
FF
FF
18
18
18
18
18
18
18
FF
FF
ENDCHAR
STARTCHAR 206
ENCODING 206
SWIDTH 1008 0
DWIDTH 14 0
BBX 8 14 0 0
BITMAP
18
3C
66
FF
FF
18
18
18
18
18
18
18
FF
FF
ENDCHAR
STARTCHAR 207
ENCODING 207
SWIDTH 1008 0
DWIDTH 14 0
BBX 8 14 0 0
BITMAP
66
66
00
FF
FF
18
18
18
18
18
18
18
FF
FF
ENDCHAR
STARTCHAR 208
ENCODING 208
SWIDTH 1008 0
DWIDTH 14 0
BBX 8 11 0 0
BITMAP
7C
7E
63
63
F3
F3
63
63
63
7E
7C
ENDCHAR
STARTCHAR 209
ENCODING 209
SWIDTH 1008 0
DWIDTH 14 0
BBX 8 14 0 0
BITMAP
71
DB
8E
C3
E3
F3
DB
CF
C7
C3
C3
C3
C3
C3
ENDCHAR
STARTCHAR 210
ENCODING 210
SWIDTH 1008 0
DWIDTH 14 0
BBX 8 14 0 0
BITMAP
60
30
18
3C
7E
C3
C3
C3
C3
C3
C3
C3
7E
3C
ENDCHAR
STARTCHAR 211
ENCODING 211
SWIDTH 1008 0
DWIDTH 14 0
BBX 8 14 0 0
BITMAP
06
0C
18
3C
7E
C3
C3
C3
C3
C3
C3
C3
7E
3C
ENDCHAR
STARTCHAR 212
ENCODING 212
SWIDTH 1008 0
DWIDTH 14 0
BBX 8 14 0 0
BITMAP
18
3C
66
00
3C
7E
C3
C3
C3
C3
C3
C3
7E
3C
ENDCHAR
STARTCHAR 213
ENCODING 213
SWIDTH 1008 0
DWIDTH 14 0
BBX 8 14 0 0
BITMAP
71
DB
8E
3C
7E
C3
C3
C3
C3
C3
C3
C3
7E
3C
ENDCHAR
STARTCHAR 214
ENCODING 214
SWIDTH 1008 0
DWIDTH 14 0
BBX 8 14 0 0
BITMAP
66
66
00
3C
7E
C3
C3
C3
C3
C3
C3
C3
7E
3C
ENDCHAR
STARTCHAR 215
ENCODING 215
SWIDTH 1008 0
DWIDTH 14 0
BBX 8 7 0 2
BITMAP
C3
66
3C
18
3C
66
C3
ENDCHAR
STARTCHAR 216
ENCODING 216
SWIDTH 1008 0
DWIDTH 14 0
BBX 8 11 0 0
BITMAP
3C
7E
C3
C7
CF
DB
F3
E3
C3
7E
3C
ENDCHAR
STARTCHAR 217
ENCODING 217
SWIDTH 1008 0
DWIDTH 14 0
BBX 8 14 0 0
BITMAP
60
30
18
C3
C3
C3
C3
C3
C3
C3
C3
C3
7E
3C
ENDCHAR
STARTCHAR 218
ENCODING 218
SWIDTH 1008 0
DWIDTH 14 0
BBX 8 14 0 0
BITMAP
06
0C
18
C3
C3
C3
C3
C3
C3
C3
C3
C3
7E
3C
ENDCHAR
STARTCHAR 219
ENCODING 219
SWIDTH 1008 0
DWIDTH 14 0
BBX 8 14 0 0
BITMAP
18
3C
66
00
C3
C3
C3
C3
C3
C3
C3
C3
7E
3C
ENDCHAR
STARTCHAR 220
ENCODING 220
SWIDTH 1008 0
DWIDTH 14 0
BBX 8 14 0 0
BITMAP
66
66
00
C3
C3
C3
C3
C3
C3
C3
C3
C3
7E
3C
ENDCHAR
STARTCHAR 221
ENCODING 221
SWIDTH 1008 0
DWIDTH 14 0
BBX 8 14 0 0
BITMAP
06
0C
18
C3
C3
C3
C3
E7
7E
3C
18
18
18
18
ENDCHAR
STARTCHAR 222
ENCODING 222
SWIDTH 1008 0
DWIDTH 14 0
BBX 8 11 0 0
BITMAP
C0
C0
FC
FE
C3
C3
FE
FC
C0
C0
C0
ENDCHAR
STARTCHAR 223
ENCODING 223
SWIDTH 1008 0
DWIDTH 14 0
BBX 8 15 0 -2
BITMAP
1C
3E
63
C3
C3
C6
CC
CC
C6
C3
C3
DE
DC
C0
C0
ENDCHAR
STARTCHAR 224
ENCODING 224
SWIDTH 1008 0
DWIDTH 14 0
BBX 8 13 0 0
BITMAP
10
18
0C
04
00
3F
7F
C3
C3
C7
CF
7B
33
ENDCHAR
STARTCHAR 225
ENCODING 225
SWIDTH 1008 0
DWIDTH 14 0
BBX 8 13 0 0
BITMAP
04
0C
18
10
00
3F
7F
C3
C3
C7
CF
7B
33
ENDCHAR
STARTCHAR 226
ENCODING 226
SWIDTH 1008 0
DWIDTH 14 0
BBX 8 12 0 0
BITMAP
18
3C
66
00
3F
7F
C3
C3
C7
CF
7B
33
ENDCHAR
STARTCHAR 227
ENCODING 227
SWIDTH 1008 0
DWIDTH 14 0
BBX 8 12 0 0
BITMAP
71
DB
8E
00
3F
7F
C3
C3
C7
CF
7B
33
ENDCHAR
STARTCHAR 228
ENCODING 228
SWIDTH 1008 0
DWIDTH 14 0
BBX 8 11 0 0
BITMAP
66
66
00
3F
7F
C3
C3
C7
CF
7B
33
ENDCHAR
STARTCHAR 229
ENCODING 229
SWIDTH 1008 0
DWIDTH 14 0
BBX 8 12 0 0
BITMAP
18
24
24
18
3F
7F
C3
C3
C7
CF
7B
33
ENDCHAR
STARTCHAR 230
ENCODING 230
SWIDTH 1008 0
DWIDTH 14 0
BBX 8 8 0 0
BITMAP
3C
7E
DB
DF
DF
D8
7F
3F
ENDCHAR
STARTCHAR 231
ENCODING 231
SWIDTH 1008 0
DWIDTH 14 0
BBX 8 11 0 -3
BITMAP
3C
7E
C3
C3
C0
C0
7F
3F
18
30
60
ENDCHAR
STARTCHAR 232
ENCODING 232
SWIDTH 1008 0
DWIDTH 14 0
BBX 8 13 0 0
BITMAP
20
30
18
08
00
3C
7E
C3
FF
FF
C0
7F
3F
ENDCHAR
STARTCHAR 233
ENCODING 233
SWIDTH 1008 0
DWIDTH 14 0
BBX 8 13 0 0
BITMAP
04
0C
18
10
00
3C
7E
C3
FF
FF
C0
7F
3F
ENDCHAR
STARTCHAR 234
ENCODING 234
SWIDTH 1008 0
DWIDTH 14 0
BBX 8 12 0 0
BITMAP
18
3C
66
00
3C
7E
C3
FF
FF
C0
7F
3F
ENDCHAR
STARTCHAR 235
ENCODING 235
SWIDTH 1008 0
DWIDTH 14 0
BBX 8 11 0 0
BITMAP
66
66
00
3C
7E
C3
FF
FF
C0
7F
3F
ENDCHAR
STARTCHAR 236
ENCODING 236
SWIDTH 1008 0
DWIDTH 14 0
BBX 6 13 1 0
BITMAP
80
C0
60
20
00
F0
F0
30
30
30
30
FC
FC
ENDCHAR
STARTCHAR 237
ENCODING 237
SWIDTH 1008 0
DWIDTH 14 0
BBX 6 13 1 0
BITMAP
08
18
30
20
00
F0
F0
30
30
30
30
FC
FC
ENDCHAR
STARTCHAR 238
ENCODING 238
SWIDTH 1008 0
DWIDTH 14 0
BBX 6 12 1 0
BITMAP
30
78
CC
00
F0
F0
30
30
30
30
FC
FC
ENDCHAR
STARTCHAR 239
ENCODING 239
SWIDTH 1008 0
DWIDTH 14 0
BBX 6 11 1 0
BITMAP
CC
CC
00
F0
F0
30
30
30
30
FC
FC
ENDCHAR
STARTCHAR 240
ENCODING 240
SWIDTH 1008 0
DWIDTH 14 0
BBX 8 13 0 0
BITMAP
48
30
30
48
04
3E
7F
C3
C3
C3
C3
7E
3C
ENDCHAR
STARTCHAR 241
ENCODING 241
SWIDTH 1008 0
DWIDTH 14 0
BBX 8 12 0 0
BITMAP
71
DB
8E
00
CC
DE
F3
E3
C3
C3
C3
C3
ENDCHAR
STARTCHAR 242
ENCODING 242
SWIDTH 1008 0
DWIDTH 14 0
BBX 8 13 0 0
BITMAP
20
30
18
08
00
3C
7E
C3
C3
C3
C3
7E
3C
ENDCHAR
STARTCHAR 243
ENCODING 243
SWIDTH 1008 0
DWIDTH 14 0
BBX 8 13 0 0
BITMAP
04
0C
18
10
00
3C
7E
C3
C3
C3
C3
7E
3C
ENDCHAR
STARTCHAR 244
ENCODING 244
SWIDTH 1008 0
DWIDTH 14 0
BBX 8 12 0 0
BITMAP
18
3C
66
00
3C
7E
C3
C3
C3
C3
7E
3C
ENDCHAR
STARTCHAR 245
ENCODING 245
SWIDTH 1008 0
DWIDTH 14 0
BBX 8 12 0 0
BITMAP
71
DB
8E
00
3C
7E
C3
C3
C3
C3
7E
3C
ENDCHAR
STARTCHAR 246
ENCODING 246
SWIDTH 1008 0
DWIDTH 14 0
BBX 8 11 0 0
BITMAP
66
66
00
3C
7E
C3
C3
C3
C3
7E
3C
ENDCHAR
STARTCHAR 247
ENCODING 247
SWIDTH 1008 0
DWIDTH 14 0
BBX 8 8 0 2
BITMAP
18
18
00
FF
FF
00
18
18
ENDCHAR
STARTCHAR 248
ENCODING 248
SWIDTH 1008 0
DWIDTH 14 0
BBX 8 8 0 0
BITMAP
3C
7E
C7
CF
F3
E3
7E
3C
ENDCHAR
STARTCHAR 249
ENCODING 249
SWIDTH 1008 0
DWIDTH 14 0
BBX 8 13 0 0
BITMAP
20
30
18
08
00
C3
C3
C3
C3
C7
CF
7B
33
ENDCHAR
STARTCHAR 250
ENCODING 250
SWIDTH 1008 0
DWIDTH 14 0
BBX 8 13 0 0
BITMAP
04
0C
18
10
00
C3
C3
C3
C3
C7
CF
7B
33
ENDCHAR
STARTCHAR 251
ENCODING 251
SWIDTH 1008 0
DWIDTH 14 0
BBX 8 12 0 0
BITMAP
18
3C
66
00
C3
C3
C3
C3
C7
CF
7B
33
ENDCHAR
STARTCHAR 252
ENCODING 252
SWIDTH 1008 0
DWIDTH 14 0
BBX 8 11 0 0
BITMAP
66
66
00
C3
C3
C3
C3
C7
CF
7B
33
ENDCHAR
STARTCHAR 253
ENCODING 253
SWIDTH 1008 0
DWIDTH 14 0
BBX 8 16 0 -3
BITMAP
04
0C
18
10
00
C3
C3
C3
C3
C3
C3
7F
3F
03
3E
3C
ENDCHAR
STARTCHAR 254
ENCODING 254
SWIDTH 1008 0
DWIDTH 14 0
BBX 8 14 0 -3
BITMAP
C0
C0
C0
FC
FE
C3
C3
C3
C3
FE
FC
C0
C0
C0
ENDCHAR
STARTCHAR 255
ENCODING 255
SWIDTH 1008 0
DWIDTH 14 0
BBX 8 14 0 -3
BITMAP
66
66
00
C3
C3
C3
C3
C3
C3
7F
3F
03
3E
3C
ENDCHAR
ENDFONT
